<svg width="18" height="18" viewBox="0 0 18 18" fill="none" xmlns="http://www.w3.org/2000/svg">
<path d="M2.89658 0.287296C3.46945 -0.00580081 4.03625 -0.0873091 4.60556 0.101749C5.11936 0.272499 5.54632 0.638861 5.92099 1.00507C6.11523 1.19495 6.31868 1.40937 6.52744 1.62909C6.73924 1.85201 6.96205 2.08714 7.20908 2.33417C7.84684 2.97194 8.12067 3.60446 8.10361 4.27655C8.09572 4.58441 8.02757 4.86351 7.95517 5.09882C7.91893 5.21659 7.87837 5.33219 7.84189 5.43671C7.80409 5.54501 7.77012 5.64215 7.73838 5.74042C7.61615 6.11886 7.5586 6.43401 7.65049 6.80878C7.74646 7.19983 8.03149 7.75443 8.80674 8.52948C9.58204 9.30478 10.1365 9.58989 10.5274 9.68573C10.9022 9.77757 11.2174 9.71942 11.5958 9.59687C11.6939 9.56508 11.7904 9.5312 11.8985 9.49335C12.0031 9.45677 12.1186 9.41645 12.2364 9.38007C12.4715 9.30749 12.75 9.23885 13.0577 9.23066C13.73 9.21288 14.3631 9.48658 15.0011 10.1242C15.2484 10.3715 15.4841 10.5946 15.7071 10.8068C15.9269 11.0159 16.1404 11.2196 16.3302 11.4142C16.6963 11.7896 17.0612 12.2168 17.2315 12.7307C17.42 13.2997 17.3396 13.8662 17.047 14.4387C16.7705 14.9793 16.2906 15.5569 15.629 16.218C15.6098 16.2371 15.5896 16.2557 15.5685 16.2726C15.5922 16.2536 15.6022 16.2407 15.5538 16.2902C15.5204 16.3244 15.4686 16.3775 15.4063 16.4367C15.2797 16.5572 15.1039 16.7084 14.8722 16.8517C14.3982 17.1448 13.732 17.3794 12.838 17.3254C11.0952 17.22 8.60531 16.0281 4.95713 12.381C1.30822 8.73311 0.114234 6.24239 0.00790751 4.49921C-0.0465646 3.60527 0.187886 2.93919 0.480564 2.46503C0.623785 2.23305 0.775065 2.05669 0.895603 1.92987C0.954787 1.86761 1.00778 1.8159 1.04209 1.78241C1.09183 1.73385 1.07942 1.74348 1.06064 1.76679C1.07739 1.74599 1.09548 1.72612 1.11435 1.70722C1.77709 1.04423 2.35568 0.564083 2.89658 0.287296ZM4.13193 1.52558C4.02179 1.48908 3.8738 1.4715 3.5792 1.62226C3.2521 1.78968 2.80847 2.13493 2.17588 2.76776L2.17392 2.76581C2.13683 2.80573 2.1042 2.84173 2.08994 2.85566C2.05341 2.89131 2.01956 2.92411 1.98252 2.96308C1.9104 3.03895 1.83068 3.13368 1.75693 3.25312C1.61574 3.48191 1.47058 3.84375 1.50498 4.40839C1.57683 5.58351 2.43527 7.73807 6.01767 11.3195C9.60007 14.9009 11.7544 15.7573 12.9288 15.8283C13.4931 15.8623 13.8543 15.7178 14.0831 15.5764C14.2026 15.5025 14.2971 15.4221 14.3731 15.3498C14.4121 15.3127 14.4448 15.279 14.4806 15.2424C14.4946 15.2281 14.5302 15.1947 14.5704 15.1574L14.5694 15.1564C15.2006 14.5258 15.5441 14.0826 15.711 13.756C15.8616 13.4616 15.8445 13.3134 15.8077 13.2023C15.7526 13.0362 15.6035 12.8165 15.2569 12.4611C15.0904 12.2903 14.8975 12.1073 14.6729 11.8937C14.4515 11.6831 14.2031 11.4473 13.9405 11.1848C13.5208 10.7653 13.2659 10.7252 13.0978 10.7297C12.9855 10.7327 12.8555 10.7591 12.6788 10.8137C12.5907 10.8409 12.4987 10.8726 12.3937 10.9094C12.2924 10.9448 12.1764 10.9852 12.0577 11.0236C11.5674 11.1824 10.9378 11.3309 10.17 11.1428C9.41861 10.9585 8.63247 10.4772 7.74619 9.59101C6.85965 8.7047 6.3779 7.91774 6.19345 7.1662C6.00531 6.39904 6.15231 5.76976 6.31064 5.27948C6.34906 5.16057 6.39049 5.04394 6.42588 4.94257C6.46254 4.83753 6.49349 4.74552 6.5206 4.65741C6.57493 4.48082 6.60171 4.35079 6.60459 4.23847C6.60886 4.06988 6.56836 3.81455 6.14853 3.39472C5.88593 3.13211 5.65012 2.88392 5.43955 2.6623C5.22593 2.43746 5.04287 2.24419 4.87217 2.07734C4.51676 1.72996 4.29753 1.58059 4.13193 1.52558ZM10.3058 3.55976C10.385 3.15368 10.7785 2.88841 11.1847 2.96698C12.053 3.13557 12.852 3.55947 13.4776 4.18476C14.1031 4.81005 14.5274 5.60859 14.6964 6.47675C14.7755 6.88325 14.5101 7.27742 14.1036 7.35663C13.6972 7.43563 13.303 7.17018 13.2237 6.76386C13.1119 6.18918 12.8311 5.66025 12.4171 5.24628C12.003 4.83241 11.4742 4.55131 10.8995 4.43964C10.493 4.36061 10.2268 3.96632 10.3058 3.55976ZM11.1251 0.00506939C12.7919 0.189904 14.3466 0.936307 15.5333 2.12128C16.7199 3.30638 17.4683 4.85996 17.6554 6.52655C17.7016 6.93818 17.4049 7.30946 16.9933 7.35566C16.5819 7.4015 16.2113 7.10498 16.1651 6.69355C16.016 5.36522 15.4186 4.12734 14.4728 3.1828C13.5268 2.23828 12.2877 1.64256 10.9591 1.4953C10.5477 1.44939 10.2514 1.07868 10.297 0.667179C10.3429 0.255874 10.7137 -0.0404366 11.1251 0.00506939Z" fill="white"/>
</svg>
