<svg width="20" height="20" viewBox="0 0 20 20" fill="none" xmlns="http://www.w3.org/2000/svg">
<g clip-path="url(#clip0_2028_278)">
<path d="M11.96 2.08398C13.4578 2.25 14.8547 2.92055 15.9211 3.98547C16.9874 5.05038 17.6599 6.44634 17.828 7.94398M11.96 5.03698C12.6816 5.17711 13.345 5.52965 13.8649 6.04939C14.3848 6.56913 14.7376 7.23236 14.878 7.95398" stroke="#0F1B8B" stroke-width="1.5" stroke-linecap="round" stroke-linejoin="round"/>
<path d="M9.194 10.394C12.518 13.718 13.273 9.87302 15.389 11.988C17.429 14.028 18.603 14.437 16.017 17.021C15.693 17.281 13.636 20.413 6.405 13.184C-0.826998 5.95402 2.303 3.89402 2.563 3.57102C5.154 0.979025 5.557 2.15802 7.597 4.19802C9.713 6.31402 5.87 7.07102 9.194 10.394Z" stroke="#0F1B8B" stroke-width="1.5" stroke-linecap="round" stroke-linejoin="round"/>
</g>
<defs>
<clipPath id="clip0_2028_278">
<rect width="20" height="20" fill="white"/>
</clipPath>
</defs>
</svg>
