<svg width="40" height="40" viewBox="0 0 40 40" fill="none" xmlns="http://www.w3.org/2000/svg">
<g clip-path="url(#clip0_2007_1792)">
<path d="M18.3333 16.6667C22.0152 16.6667 25 13.6819 25 10C25 6.31814 22.0152 3.33337 18.3333 3.33337C14.6514 3.33337 11.6666 6.31814 11.6666 10C11.6666 13.6819 14.6514 16.6667 18.3333 16.6667Z" stroke="#001DDC" stroke-width="3.33333" stroke-linecap="round" stroke-linejoin="round"/>
<path d="M28.0333 25.8717C26.7905 24.5442 25.2882 23.486 23.6197 22.7626C21.9512 22.0393 20.1519 21.6663 18.3333 21.6667C14.7971 21.6667 11.4057 23.0715 8.90524 25.572C6.40476 28.0725 5 31.4639 5 35.0001C8.62667 35.9067 12.255 36.4234 15.8817 36.5901" stroke="#001DDC" stroke-width="3.33333" stroke-linecap="round" stroke-linejoin="round"/>
<path d="M21.6666 33.3334L25.8333 37.5001L36.6666 26.6667" stroke="#001DDC" stroke-width="3.33333" stroke-linecap="round" stroke-linejoin="round"/>
</g>
<defs>
<clipPath id="clip0_2007_1792">
<rect width="40" height="40" fill="white"/>
</clipPath>
</defs>
</svg>
