<svg width="40" height="40" viewBox="0 0 40 40" fill="none" xmlns="http://www.w3.org/2000/svg">
<g clip-path="url(#clip0_2006_423)">
<g clip-path="url(#clip1_2006_423)">
<g clip-path="url(#clip2_2006_423)">
<path d="M20 21.25C21.7259 21.25 23.125 19.8509 23.125 18.125C23.125 16.3991 21.7259 15 20 15C18.2741 15 16.875 16.3991 16.875 18.125C16.875 19.8509 18.2741 21.25 20 21.25Z" stroke="#001DDC" stroke-width="2.5" stroke-linecap="round" stroke-linejoin="round"/>
<path d="M28.75 33.5419V28.125C28.75 27.2962 28.4208 26.5013 27.8347 25.9153C27.2487 25.3292 26.4538 25 25.625 25H13.125L8.125 18.75L6.875 10.625" stroke="#001DDC" stroke-width="2.5" stroke-linecap="round" stroke-linejoin="round"/>
<path d="M4.375 10.625H9.375M8.75 25L12.5 32.5V38.125M20 15V11.875M22.21 15.915L24.4194 13.7056M23.125 18.125H26.25M16.875 18.125H13.75M17.79 15.915L15.5806 13.7056" stroke="#001DDC" stroke-width="2.5" stroke-linecap="round" stroke-linejoin="round"/>
<path d="M16.25 38.125L25 25" stroke="#001DDC" stroke-width="2.5" stroke-linecap="round" stroke-linejoin="round"/>
<path d="M8.75 5.625C8.75 6.12228 8.55246 6.59919 8.20083 6.95083C7.84919 7.30246 7.37228 7.5 6.875 7.5C6.37772 7.5 5.90081 7.30246 5.54917 6.95083C5.19754 6.59919 5 6.12228 5 5.625C5 3.75 6.875 1.875 6.875 1.875C6.875 1.875 8.75 3.75 8.75 5.625Z" stroke="#001DDC" stroke-width="2.5" stroke-linecap="round" stroke-linejoin="round"/>
<path d="M31.9887 38.125L34.375 33.75L30 31.25L26.25 38.125" stroke="#001DDC" stroke-width="2.5" stroke-linecap="round" stroke-linejoin="round"/>
</g>
</g>
</g>
<defs>
<clipPath id="clip0_2006_423">
<rect width="40" height="40" fill="white"/>
</clipPath>
<clipPath id="clip1_2006_423">
<rect width="40" height="40" fill="white"/>
</clipPath>
<clipPath id="clip2_2006_423">
<rect width="40" height="40" fill="white"/>
</clipPath>
</defs>
</svg>
