<svg width="40" height="40" viewBox="0 0 40 40" fill="none" xmlns="http://www.w3.org/2000/svg">
<g clip-path="url(#clip0_2006_382)">
<g clip-path="url(#clip1_2006_382)">
<g clip-path="url(#clip2_2006_382)">
<path d="M19.3386 0.230225C19.9932 -0.303587 20.9589 -0.265672 21.5691 0.344482L26.2058 4.9812H32.7654C33.6858 4.98127 34.4324 5.72776 34.4324 6.64819V13.2078L39.0691 17.8445C39.3815 18.157 39.5574 18.5813 39.5574 19.0232C39.5573 19.4651 39.3816 19.8894 39.0691 20.2019L34.4324 24.8386V31.3982C34.4322 32.3185 33.6857 33.0651 32.7654 33.0652H26.2058L21.5691 37.7019C21.2566 38.0144 20.8323 38.1902 20.3904 38.1902C19.9484 38.1902 19.5242 38.0143 19.2117 37.7019L14.575 33.0652H8.01538C7.095 33.0652 6.34853 32.3185 6.34839 31.3982V24.8386L1.71167 20.2019C1.06082 19.5511 1.06087 18.4954 1.71167 17.8445L6.34839 13.2078V6.64819C6.34839 5.72772 7.09491 4.9812 8.01538 4.9812H14.575L19.2117 0.344482L19.3386 0.230225ZM16.4441 7.8269C16.1316 8.13939 15.7073 8.31515 15.2654 8.31519H9.68237V13.8982C9.6823 14.3401 9.50659 14.7644 9.19409 15.0769L5.2478 19.0232L9.19409 22.9695C9.50653 23.282 9.68237 23.7063 9.68237 24.1482V29.7312H15.2654C15.7074 29.7312 16.1316 29.907 16.4441 30.2195L20.3904 34.1658L24.3367 30.2195C24.6492 29.9069 25.0734 29.7312 25.5154 29.7312H31.0984V24.1482C31.0984 23.7062 31.2742 23.282 31.5867 22.9695L35.533 19.0232L31.5867 15.0769C31.2742 14.7644 31.0985 14.3401 31.0984 13.8982V8.31519H25.5154C25.0734 8.31519 24.6492 8.13934 24.3367 7.8269L20.3904 3.88062L16.4441 7.8269ZM26.6267 11.8611C27.2096 11.1488 28.26 11.0439 28.9724 11.6267C29.6847 12.2096 29.7896 13.26 29.2068 13.9724L17.9568 27.7224C17.6586 28.0867 17.22 28.3083 16.7498 28.3318C16.2795 28.3552 15.821 28.1784 15.488 27.8455L10.488 22.8455C9.83723 22.1946 9.83725 21.1389 10.488 20.488C11.1389 19.8372 12.1946 19.8372 12.8455 20.488L16.5427 24.1853L26.6267 11.8611Z" fill="#001DDC"/>
</g>
</g>
</g>
<defs>
<clipPath id="clip0_2006_382">
<rect width="40" height="40" fill="white"/>
</clipPath>
<clipPath id="clip1_2006_382">
<rect width="40" height="40" fill="white"/>
</clipPath>
<clipPath id="clip2_2006_382">
<rect width="40" height="40" fill="white"/>
</clipPath>
</defs>
</svg>
