<svg width="40" height="40" viewBox="0 0 40 40" fill="none" xmlns="http://www.w3.org/2000/svg">
<g clip-path="url(#clip0_2006_410)">
<g clip-path="url(#clip1_2006_410)">
<g clip-path="url(#clip2_2006_410)">
<path d="M20 6.66667V2.5M20 2.5V2.91667M20 2.5C29.665 2.5 37.5 10.335 37.5 20M20 2.5C10.335 2.5 2.5 10.335 2.5 20M33.3333 20H37.5M37.5 20H37.0833M37.5 20C37.5 29.665 29.665 37.5 20 37.5M20 33.3333V37.5M20 37.5V37.0833M20 37.5C10.335 37.5 2.5 29.665 2.5 20M6.66667 20H2.5M2.5 20H2.91667" stroke="#001DDC" stroke-width="3.33333" stroke-linecap="round" stroke-linejoin="round"/>
<path d="M12.5 10L20 20H27.5" stroke="#001DDC" stroke-width="3.33333" stroke-linecap="round" stroke-linejoin="round"/>
</g>
</g>
</g>
<defs>
<clipPath id="clip0_2006_410">
<rect width="40" height="40" fill="white"/>
</clipPath>
<clipPath id="clip1_2006_410">
<rect width="40" height="40" fill="white"/>
</clipPath>
<clipPath id="clip2_2006_410">
<rect width="40" height="40" fill="white"/>
</clipPath>
</defs>
</svg>
