<svg width="40" height="40" viewBox="0 0 40 40" fill="none" xmlns="http://www.w3.org/2000/svg">
<g clip-path="url(#clip0_2006_396)">
<g clip-path="url(#clip1_2006_396)">
<g clip-path="url(#clip2_2006_396)">
<path d="M15.8333 35.8333V23.3333H24.1666V35.8333" stroke="#001DDC" stroke-width="3.33333" stroke-linecap="round" stroke-linejoin="round"/>
<path d="M6.66667 19.1666V31.6666C6.66667 32.7717 7.10565 33.8315 7.88705 34.6129C8.66846 35.3943 9.72826 35.8333 10.8333 35.8333H29.1667C30.2717 35.8333 31.3315 35.3943 32.1129 34.6129C32.8943 33.8315 33.3333 32.7717 33.3333 31.6666V19.1666M2.5 17.0833L20 3.33325L37.5 17.0833" stroke="#001DDC" stroke-width="3.33333" stroke-linecap="round" stroke-linejoin="round"/>
<path d="M20.0001 17.4999C20.8841 17.4999 21.732 17.1487 22.3571 16.5236C22.9822 15.8985 23.3334 15.0506 23.3334 14.1666C23.3334 13.2825 22.9822 12.4347 22.3571 11.8096C21.732 11.1844 20.8841 10.8333 20.0001 10.8333C19.116 10.8333 18.2682 11.1844 17.6431 11.8096C17.0179 12.4347 16.6667 13.2825 16.6667 14.1666C16.6667 15.0506 17.0179 15.8985 17.6431 16.5236C18.2682 17.1487 19.116 17.4999 20.0001 17.4999Z" stroke="#001DDC" stroke-width="3.33333" stroke-linecap="round" stroke-linejoin="round"/>
</g>
</g>
</g>
<defs>
<clipPath id="clip0_2006_396">
<rect width="40" height="40" fill="white"/>
</clipPath>
<clipPath id="clip1_2006_396">
<rect width="40" height="40" fill="white"/>
</clipPath>
<clipPath id="clip2_2006_396">
<rect width="40" height="40" fill="white"/>
</clipPath>
</defs>
</svg>
